HIERARCHY
ROOT Hips
{
  OFFSET 5.84602e-005 68.8428 3.50346
  CHANNELS 6 Xposition Yposition Zposition Zrotation Xrotation Yrotation
  JOINT Spine
  {
    OFFSET 0 8.597 -4.6522
    CHANNELS 3 Zrotation Xrotation Yrotation
    JOINT Spine1
    {
      OFFSET 0 7.8454 0.4098
      CHANNELS 3 Zrotation Xrotation Yrotation
      JOINT Spine2
      {
        OFFSET 0 9.7078 -2.1609
        CHANNELS 3 Zrotation Xrotation Yrotation
        JOINT Neck
        {
          OFFSET 0 21.8761 -0.4549
          CHANNELS 3 Zrotation Xrotation Yrotation
          JOINT Head
          {
            OFFSET 0 12.3537 3.3602
            CHANNELS 3 Zrotation Xrotation Yrotation
            End Site
            {
              OFFSET 0.0001 18.9506 0.5657
            }
          }
        }
        JOINT LeftShoulder
        {
          OFFSET 2.2086 21.1115 7.2329
          CHANNELS 3 Zrotation Xrotation Yrotation
          JOINT LeftArm
          {
            OFFSET 13.1193 3.0282 -4.8998
            CHANNELS 3 Zrotation Xrotation Yrotation
            JOINT LeftForeArm
            {
              OFFSET 27.4081 -0.0973053 -0.2375
              CHANNELS 3 Zrotation Xrotation Yrotation
              JOINT LeftHand
              {
                OFFSET 22.8641 0.0662994 -0.1369
                CHANNELS 3 Zrotation Xrotation Yrotation
                JOINT LeftHandIndex1
                {
                  OFFSET 8.8614 0.775009 2.4612
                  CHANNELS 3 Zrotation Xrotation Yrotation
                  JOINT LeftHandIndex2
                  {
                    OFFSET 3.3146 -0.808304 0.5841
                    CHANNELS 3 Zrotation Xrotation Yrotation
                    JOINT LeftHandIndex3
                    {
                      OFFSET 2.2628 -0.552002 0.3989
                      CHANNELS 3 Zrotation Xrotation Yrotation
                      End Site
                      {
                        OFFSET 1.6102 -0.4807 0.2612
                      }
                    }
                  }
                }
                JOINT LeftHandMiddle1
                {
                  OFFSET 8.9937 0.895004 0.2143
                  CHANNELS 3 Zrotation Xrotation Yrotation
                  JOINT LeftHandMiddle2
                  {
                    OFFSET 4.0984 0.0113983 -0.0242
                    CHANNELS 3 Zrotation Xrotation Yrotation
                    JOINT LeftHandMiddle3
                    {
                      OFFSET 2.2716 0.00689697 -0.0138001
                      CHANNELS 3 Zrotation Xrotation Yrotation
                      End Site
                      {
                        OFFSET 2.0404 -0.1441 0.0027
                      }
                    }
                  }
                }
                JOINT LeftHandRing1
                {
                  OFFSET 8.5234 0.597198 -2.0164
                  CHANNELS 3 Zrotation Xrotation Yrotation
                  JOINT LeftHandRing2
                  {
                    OFFSET 3.7188 -0.188293 -0.2328
                    CHANNELS 3 Zrotation Xrotation Yrotation
                    JOINT LeftHandRing3
                    {
                      OFFSET 2.1191 -0.106598 -0.1332
                      CHANNELS 3 Zrotation Xrotation Yrotation
                      End Site
                      {
                        OFFSET 1.8737 -0.2304 -0.0886
                      }
                    }
                  }
                }
                JOINT LeftHandPinky1
                {
                  OFFSET 7.9094 -0.601089 -3.4825
                  CHANNELS 3 Zrotation Xrotation Yrotation
                  JOINT LeftHandPinky2
                  {
                    OFFSET 2.2874 -0.477005 -0.6314
                    CHANNELS 3 Zrotation Xrotation Yrotation
                    JOINT LeftHandPinky3
                    {
                      OFFSET 1.6774 -0.349396 -0.4633
                      CHANNELS 3 Zrotation Xrotation Yrotation
                      End Site
                      {
                        OFFSET 1.4888 -0.4091 -0.3416
                      }
                    }
                  }
                }
                JOINT LeftHandThumb1
                {
                  OFFSET 1.833 -1.3875 1.3896
                  CHANNELS 3 Zrotation Xrotation Yrotation
                  JOINT LeftHandThumb2
                  {
                    OFFSET 3.4129 -1.121 2.5732
                    CHANNELS 3 Zrotation Xrotation Yrotation
                    JOINT LeftHandThumb3
                    {
                      OFFSET 2.2474 -0.804199 1.6192
                      CHANNELS 3 Zrotation Xrotation Yrotation
                      End Site
                      {
                        OFFSET 1.6527 -0.5689 1.1317
                      }
                    }
                  }
                }
              }
            }
          }
        }
        JOINT RightShoulder
        {
          OFFSET -2.2086 21.1115 7.2329
          CHANNELS 3 Zrotation Xrotation Yrotation
          JOINT RightArm
          {
            OFFSET -13.1216 3.0287 -4.9007
            CHANNELS 3 Zrotation Xrotation Yrotation
            JOINT RightForeArm
            {
              OFFSET -27.4081 -0.0973053 -0.2375
              CHANNELS 3 Zrotation Xrotation Yrotation
              JOINT RightHand
              {
                OFFSET -22.8641 0.0664063 -0.1369
                CHANNELS 3 Zrotation Xrotation Yrotation
                JOINT RightHandIndex1
                {
                  OFFSET -8.8614 0.774994 2.4612
                  CHANNELS 3 Zrotation Xrotation Yrotation
                  JOINT RightHandIndex2
                  {
                    OFFSET -3.3146 -0.808304 0.5841
                    CHANNELS 3 Zrotation Xrotation Yrotation
                    JOINT RightHandIndex3
                    {
                      OFFSET -2.2628 -0.552002 0.3989
                      CHANNELS 3 Zrotation Xrotation Yrotation
                      End Site
                      {
                        OFFSET -1.6102 -0.4807 0.2612
                      }
                    }
                  }
                }
                JOINT RightHandMiddle1
                {
                  OFFSET -8.9937 0.894989 0.2143
                  CHANNELS 3 Zrotation Xrotation Yrotation
                  JOINT RightHandMiddle2
                  {
                    OFFSET -4.0984 0.0113983 -0.0242
                    CHANNELS 3 Zrotation Xrotation Yrotation
                    JOINT RightHandMiddle3
                    {
                      OFFSET -2.2716 0.00691223 -0.0138001
                      CHANNELS 3 Zrotation Xrotation Yrotation
                      End Site
                      {
                        OFFSET -2.0404 -0.1441 0.0027
                      }
                    }
                  }
                }
                JOINT RightHandRing1
                {
                  OFFSET -8.5234 0.597198 -2.0164
                  CHANNELS 3 Zrotation Xrotation Yrotation
                  JOINT RightHandRing2
                  {
                    OFFSET -3.7188 -0.188309 -0.2328
                    CHANNELS 3 Zrotation Xrotation Yrotation
                    JOINT RightHandRing3
                    {
                      OFFSET -2.1191 -0.106598 -0.1332
                      CHANNELS 3 Zrotation Xrotation Yrotation
                      End Site
                      {
                        OFFSET -1.8737 -0.2304 -0.0886
                      }
                    }
                  }
                }
                JOINT RightHandPinky1
                {
                  OFFSET -7.9094 -0.601105 -3.4825
                  CHANNELS 3 Zrotation Xrotation Yrotation
                  JOINT RightHandPinky2
                  {
                    OFFSET -2.2874 -0.477005 -0.6314
                    CHANNELS 3 Zrotation Xrotation Yrotation
                    JOINT RightHandPinky3
                    {
                      OFFSET -1.6774 -0.349396 -0.4633
                      CHANNELS 3 Zrotation Xrotation Yrotation
                      End Site
                      {
                        OFFSET -1.4888 -0.4091 -0.3416
                      }
                    }
                  }
                }
                JOINT RightHandThumb1
                {
                  OFFSET -1.833 -1.38751 1.3896
                  CHANNELS 3 Zrotation Xrotation Yrotation
                  JOINT RightHandThumb2
                  {
                    OFFSET -3.41299 -1.12099 2.5732
                    CHANNELS 3 Zrotation Xrotation Yrotation
                    JOINT RightHandThumb3
                    {
                      OFFSET -2.24741 -0.804108 1.6192
                      CHANNELS 3 Zrotation Xrotation Yrotation
                      End Site
                      {
                        OFFSET -1.6527 -0.5689 1.1317
                      }
                    }
                  }
                }
              }
            }
          }
        }
      }
    }
  }
  JOINT RightUpLeg
  {
    OFFSET -9.1966 3.8861 -0.7581
    CHANNELS 3 Zrotation Xrotation Yrotation
    JOINT RightLeg
    {
      OFFSET -0.7359 -41.0265 0
      CHANNELS 3 Zrotation Xrotation Yrotation
      JOINT RightFoot
      {
        OFFSET 0 -40.2855 0
        CHANNELS 3 Zrotation Xrotation Yrotation
        JOINT RightToeBase
        {
          OFFSET 0 -5.6122 11.7359
          CHANNELS 3 Zrotation Xrotation Yrotation
          End Site
          {
            OFFSET 0 0 7.8731
          }
        }
      }
    }
  }
  JOINT LeftUpLeg
  {
    OFFSET 9.1965 3.8864 -0.7581
    CHANNELS 3 Zrotation Xrotation Yrotation
    JOINT LeftLeg
    {
      OFFSET 0.7359 -41.0268 0
      CHANNELS 3 Zrotation Xrotation Yrotation
      JOINT LeftFoot
      {
        OFFSET 0 -40.2855 0
        CHANNELS 3 Zrotation Xrotation Yrotation
        JOINT LeftToeBase
        {
          OFFSET 0 -5.6122 11.7359
          CHANNELS 3 Zrotation Xrotation Yrotation
          End Site
          {
            OFFSET 0 0 7.8731
          }
        }
      }
    }
  }
}
MOTION
Frames:	6
Frame Time:	0.0333333
5.84602e-005 68.8428 3.50346 0 0 -0 0 0 -0 0 0 -0 0 0 -0 0 0 -0 0 0 -0 0 0 -0 0 0 -0 0 0 -0 0 0 -0 0 0 -0 0 0 -0 0 0 -0 0 0 -0 -0.0146107 -8.87603e-005 -2.63497e-007 2.99804e-018 -2.42657e-020 -1.42182e-022 0 0 -0 -0.0187562 -0.001176 5.858e-005 5.06224e-018 3.88251e-019 1.21329e-020 0 0 -0 -0.012269 -0.00324817 0.000675346 -1.74678e-018 3.88251e-019 -0 0 0 -0 0 0 -0 0 0 -0 0 0 -0 0 0 -0 0 0 -0 0 0 -0 0 0 -0 0 0 -0 0 0 -0 0 0 -0 0.0149955 -9.10982e-005 2.64101e-007 -9.69331e-018 1.21329e-020 -4.7394e-023 0 0 -0 0.0189956 -0.00119102 -5.96516e-005 -5.41541e-019 0 2.42657e-020 0 0 -0 0.0122698 -0.00324857 -0.000673756 -2.00796e-019 0 -1.94126e-019 0 0 -0 0 0 -0 0 0 -0 3.39842 1.33031 -0.0637918 -5.65207e-008 0.834868 -0.000436188 -3.39935 -2.16518 -0.0642563 -8.89002e-024 -1.18485e-023 -1.48106e-024 -3.39844 1.35642 0.0640283 -3.18788e-007 0.782166 -0.000588827 3.39931 -2.13858 0.0634662 1.1399e-023 0 -0 
-3.26532 52.5159 6.90512 22.879 -22.8797 0.000484566 0.0221747 0.119666 0.0835131 0.044182 0.239363 0.166981 0.0441818 0.239362 0.166981 3.94768 8.35497 5.30234 -2.89114e-006 6.09128e-006 -3.22982e-007 1.12243 -0.949673 -8.5922 -20.4473 7.00761 -5.53285 8.09761 -13.418 -19.0568 0.253803 7.53613e-006 -5.20736e-006 3.18055e-015 -6.36111e-015 -0 3.18055e-015 0 3.18055e-015 -3.18055e-015 3.18055e-015 6.36111e-015 3.18055e-015 -6.36111e-015 -0 -0.0147047 -8.94841e-005 3.9823e-006 3.18055e-015 -3.18055e-015 6.36111e-015 3.18055e-015 -6.36111e-015 -0 -0.0187457 -0.0011747 5.8982e-005 -6.36111e-015 0 3.18055e-015 3.18055e-015 -6.36111e-015 -0 -0.0122484 -0.00324333 0.000676733 6.36111e-015 6.36111e-015 -0 3.18055e-015 -6.36111e-015 -0 3.18055e-015 0 3.18055e-015 -3.18055e-015 3.18055e-015 6.36111e-015 12.8103 3.69161 9.43032 12.4348 1.01051 -2.893 -19.3748 -10.4189 8.93215 1.77878 -5.38925 -0.000575019 -1.59028e-015 -9.54166e-015 -0 1.59028e-015 -6.36111e-015 1.59028e-015 1.59028e-015 3.18055e-015 -1.59028e-015 -1.59028e-015 -9.54166e-015 -0 0.0150126 -9.17488e-005 1.36024e-006 1.59028e-015 0 -0 -1.59028e-015 -9.54166e-015 -0 0.0190411 -0.00119501 -5.88505e-005 6.36111e-015 6.36111e-015 -1.59028e-015 -1.59028e-015 -9.54166e-015 -0 0.0122259 -0.00323014 -0.000675853 -1.11204e-007 1.07643e-006 -7.4387e-007 -1.59028e-015 -9.54166e-015 -0 1.59028e-015 -6.36111e-015 1.59028e-015 1.59028e-015 3.18055e-015 -1.59028e-015 1.95664 -4.45244 -0.65117 0.536612 9.18259 -0.929938 -5.38847 9.02129 0.881084 -1.69137e-006 -7.98379e-008 -8.10299e-008 -6.77858 -12.4274 -0.714826 -0.441227 19.0238 1.23114 5.48738 4.84459 -0.639836 1.77072e-006 2.51094e-007 8.8007e-007 
-9.1143 35.8539 9.47893 47.2286 -47.2294 0.00135744 0.0444421 0.245092 0.175819 0.0881502 0.490278 0.351447 0.0881584 0.490284 0.351451 6.39217 17.0052 11.3284 -3.58043e-007 2.3696e-006 -2.67408e-006 2.00872 -1.88923 -17.7446 -40.6893 14.243 -11.7001 7.06513 -22.5358 -42.0399 0.523912 -8.34188e-007 4.75618e-006 3.18055e-015 0 -1.59028e-015 6.36111e-015 -3.18055e-015 -0 9.54166e-015 -7.95139e-016 -0 3.18055e-015 0 -1.59028e-015 -0.0146094 -8.93646e-005 -1.88067e-006 3.18055e-015 3.97569e-015 1.59028e-015 3.18055e-015 0 -1.59028e-015 -0.0188111 -0.00117951 6.24872e-005 -3.18055e-015 -3.18055e-015 -3.18055e-015 3.18055e-015 0 -1.59028e-015 -0.0121718 -0.00322328 0.000677122 1.65664e-006 2.10395e-007 1.05013e-006 3.18055e-015 0 -1.59028e-015 6.36111e-015 -3.18055e-015 -0 9.54166e-015 -7.95139e-016 -0 25.1256 7.28138 19.5897 25.7804 2.07729 -5.97489 -36.2724 -20.6339 19.4227 3.67174 -11.1248 -0.00120835 -2.21933e-007 -7.24437e-008 2.14667e-007 -3.18055e-015 -5.56597e-015 -4.77083e-015 -6.36111e-015 -3.18055e-015 -2.38542e-015 -2.21933e-007 -7.24437e-008 2.14667e-007 0.0149785 -9.53424e-005 2.07792e-006 1.59028e-014 -1.59028e-015 7.95139e-016 -2.21933e-007 -7.24437e-008 2.14667e-007 0.0189423 -0.00119334 -6.16e-005 -2.2363e-007 -7.23013e-008 2.14686e-007 -2.21933e-007 -7.24437e-008 2.14667e-007 0.0122568 -0.00323705 -0.000675782 6.36111e-015 5.56597e-015 1.59028e-015 -2.21933e-007 -7.24437e-008 2.14667e-007 -3.18055e-015 -5.56597e-015 -4.77083e-015 -6.36111e-015 -3.18055e-015 -2.38542e-015 0.0489464 -12.3433 -1.31262 1.28488 21.7612 -1.94044 -7.61704 18.9742 1.78724 6.61759e-006 1.55119e-006 1.42318e-006 -10.2569 -24.1989 -1.52659 -1.52952 32.3341 2.53121 7.92635 15.4588 -1.47867 -5.28227e-007 2.7568e-006 -2.06381e-006 
-16.2771 19.3368 10.8377 69.62 -69.6191 0.0039 0.0636467 0.358353 0.263696 0.125745 0.717075 0.526947 0.12575 0.71706 0.526948 6.8811 24.4815 17.586 -2.41753e-009 -2.80377e-006 1.3871e-006 2.56272 -2.62489 -26.1717 -57.8422 20.4756 -17.873 0.668961 -22.245 -64.0543 0.772288 9.6146e-007 4.94028e-006 -1.59028e-015 6.36111e-015 -0 4.07466e-007 -9.61519e-008 8.04996e-008 -3.18055e-015 -6.36111e-015 -6.36111e-015 -1.59028e-015 6.36111e-015 -0 -0.0146256 -8.82526e-005 3.17747e-006 4.77083e-015 -9.54166e-015 -9.54166e-015 -1.59028e-015 6.36111e-015 -0 -0.0187696 -0.00117992 6.14687e-005 1.23354e-008 7.01248e-007 1.96896e-007 -1.59028e-015 6.36111e-015 -0 -0.0123236 -0.00326229 0.00067843 -1.76556e-031 -3.18055e-015 -3.18055e-015 -1.59028e-015 6.36111e-015 -0 4.07466e-007 -9.61519e-008 8.04996e-008 -3.18055e-015 -6.36111e-015 -6.36111e-015 35.3319 9.97677 29.1157 38.153 3.04244 -8.81407 -48.1629 -28.3207 30.7236 5.41219 -16.3986 -0.00182571 -6.59089e-007 -2.20885e-007 -2.73441e-007 -6.59089e-007 -2.20885e-007 -2.73441e-007 -6.59089e-007 -2.20885e-007 -2.73441e-007 -6.59089e-007 -2.20885e-007 -2.73441e-007 0.0150346 -9.22866e-005 -3.05341e-006 -6.59087e-007 -2.20921e-007 -2.73412e-007 -6.59089e-007 -2.20885e-007 -2.73441e-007 0.0189892 -0.00119379 -5.18463e-005 1.32064e-007 -1.25841e-006 -1.27373e-006 -6.59089e-007 -2.20885e-007 -2.73441e-007 0.0122662 -0.00324573 -0.000675127 -6.59094e-007 -2.20918e-007 -2.73399e-007 -6.59089e-007 -2.20885e-007 -2.73441e-007 -6.59089e-007 -2.20885e-007 -2.73441e-007 -6.59089e-007 -2.20885e-007 -2.73441e-007 -2.06409 -20.6412 -2.03109 2.52697 34.8729 -3.14676 -10.0443 27.62 2.62755 1.98785e-015 -9.54166e-015 7.95139e-016 -13.8707 -34.5401 -2.39294 -2.57822 44.1289 3.73352 10.2988 25.177 -2.2791 3.70288e-007 3.18347e-006 1.75733e-006 
-22.1158 5.47193 11.1823 86.6436 -86.6184 0.0286181 0.0774815 0.442943 0.332124 0.152429 0.886351 0.663674 0.15243 0.886341 0.663652 5.98965 29.6627 23.0187 9.58577e-006 -3.74494e-006 -1.32522e-006 2.83475 -3.06638 -32.5774 -69.8723 24.7949 -23.0153 -3.94037 -15.893 -77.9676 0.960854 1.45542e-006 -2.90722e-007 -5.86415e-015 -3.18055e-015 -1.39149e-015 -2.83268e-015 0 3.97569e-016 -2.78299e-015 -3.18055e-015 -5.96354e-016 -5.86415e-015 -3.18055e-015 -1.39149e-015 -0.0146021 -8.88429e-005 -1.42759e-006 1.36294e-006 -3.43572e-007 1.64313e-007 -5.86415e-015 -3.18055e-015 -1.39149e-015 -0.0187109 -0.00117292 5.86727e-005 -2.68359e-015 -3.18055e-015 -5.96354e-016 -5.86415e-015 -3.18055e-015 -1.39149e-015 -0.0122712 -0.00324864 0.000677104 -9.88954e-015 0 9.93923e-016 -5.86415e-015 -3.18055e-015 -1.39149e-015 -2.83268e-015 0 3.97569e-016 -2.78299e-015 -3.18055e-015 -5.96354e-016 42.4535 11.4736 36.4676 47.6111 3.76066 -10.9746 -54.8689 -32.4533 40.5287 6.73355 -20.4027 -0.00232191 2.70781e-007 -6.58181e-007 1.17031e-007 3.74176e-008 -5.14464e-007 7.7243e-007 -7.95139e-016 0 -6.36111e-015 2.70781e-007 -6.58181e-007 1.17031e-007 0.0150051 -9.38825e-005 2.43724e-006 7.95139e-016 6.36111e-015 -0 2.70781e-007 -6.58181e-007 1.17031e-007 0.0189952 -0.00119064 -5.89829e-005 2.68485e-007 -6.58018e-007 1.17144e-007 2.70781e-007 -6.58181e-007 1.17031e-007 0.0122856 -0.00325213 -0.000673211 -3.97569e-015 6.36111e-015 -3.18055e-015 2.70781e-007 -6.58181e-007 1.17031e-007 3.74176e-008 -5.14464e-007 7.7243e-007 -7.95139e-016 0 -6.36111e-015 -3.58305 -26.6391 -2.65226 3.53693 43.7103 -4.18078 -12.2463 34.9794 3.46466 4.32443e-007 -1.22727e-006 1.07096e-006 -17.1451 -42.4951 -3.3015 -3.69055 53.6956 5.02036 12.4037 32.0403 -2.93084 5.19279e-007 -1.13665e-006 1.09934e-006 
-24.9508 -1.98656 11.1452 -84.8101 -84.7861 179.98 0.0841896 0.485431 0.367453 0.165371 0.971303 0.734196 0.165361 0.971303 0.73419 5.08627 32.0409 26.042 8.91614e-006 -1.20289e-006 -3.77776e-006 2.92911 -3.24433 -35.8191 -75.616 26.8035 -25.7922 -5.57169 -10.9434 -83.4803 1.05622 2.12293e-006 -1.62846e-006 3.26398e-008 -1.84106e-007 -1.02861e-007 2.47958e-007 -1.03402e-007 1.28632e-006 -6.52795e-008 3.68211e-007 2.05723e-007 3.26398e-008 -1.84106e-007 -1.02861e-007 -0.0146109 -8.95997e-005 -1.22881e-007 -6.52783e-008 3.68185e-007 2.0577e-007 3.26398e-008 -1.84106e-007 -1.02861e-007 -0.0187428 -0.00117397 5.66782e-005 -6.52759e-008 3.68178e-007 2.05784e-007 3.26398e-008 -1.84106e-007 -1.02861e-007 -0.0122039 -0.00323084 0.000676114 -6.52707e-008 3.6819e-007 2.05764e-007 3.26398e-008 -1.84106e-007 -1.02861e-007 2.47958e-007 -1.03402e-007 1.28632e-006 -6.52795e-008 3.68211e-007 2.05723e-007 45.8794 12.0126 40.214 52.4144 4.11788 -12.069 -57.6037 -33.8346 45.8071 7.40166 -22.4274 -0.00258483 1.3418e-015 -4.77083e-015 -1.98785e-016 -1.98785e-016 -3.18055e-015 -9.93923e-016 1.49089e-015 -4.77083e-015 -1.19271e-015 1.3418e-015 -4.77083e-015 -1.98785e-016 0.0149635 -9.11921e-005 5.83066e-007 1.14301e-015 3.18055e-014 1.98785e-016 1.3418e-015 -4.77083e-015 -1.98785e-016 0.0189946 -0.00119084 -5.87371e-005 -7.66065e-008 5.53908e-007 -1.25095e-008 1.3418e-015 -4.77083e-015 -1.98785e-016 0.0122843 -0.00325222 -0.000677456 6.15129e-008 2.93529e-007 6.99645e-008 1.3418e-015 -4.77083e-015 -1.98785e-016 -1.98785e-016 -3.18055e-015 -9.93923e-016 1.49089e-015 -4.77083e-015 -1.19271e-015 -4.29544 -29.5069 -2.98552 4.09673 47.7624 -4.78542 -13.5727 38.9334 4.02417 4.98033e-007 -1.12714e-006 1.15296e-006 -19.082 -46.6061 -3.92926 -4.51119 58.7254 5.99436 13.638 35.3979 -3.31194 -1.52753e-007 -3.36839e-006 -8.63511e-007 
